<svg width="178" height="34" viewBox="0 0 178 34" fill="none" xmlns="http://www.w3.org/2000/svg">
<path d="M0.266602 0.946289H7.46484L17.5342 25.3916L27.6035 0.946289H34.8018L20.7539 33H14.3145L0.266602 0.946289ZM37.5211 0.946289H64.817V6.64746H44.0221V13.0459H62.4381V18.3984H44.0221V27.3193H65.2477V33H37.5211V0.946289ZM70.3254 0.946289H76.8264L96.801 11.4053V0.946289H103.302V33H96.801V18.2959L76.8264 7.89844V33H70.3254V0.946289ZM110.266 0.946289H116.767V17.5371L133.686 0.946289H142.012L126.221 16.2451L142.012 33H133.358L121.546 20.7773L116.767 25.3916V33H110.266V0.946289ZM141.225 16.8809C141.225 14.4609 141.669 12.2461 142.558 10.2363C143.447 8.22656 144.691 6.50391 146.29 5.06836C147.904 3.61914 149.831 2.49805 152.074 1.70508C154.329 0.912109 156.825 0.515625 159.559 0.515625C162.28 0.515625 164.768 0.912109 167.024 1.70508C169.28 2.49805 171.207 3.61914 172.807 5.06836C174.42 6.50391 175.671 8.22656 176.56 10.2363C177.449 12.2461 177.893 14.4609 177.893 16.8809C177.893 19.3145 177.449 21.5498 176.56 23.5869C175.671 25.6104 174.42 27.3535 172.807 28.8164C171.207 30.2793 169.28 31.4209 167.024 32.2412C164.768 33.0479 162.28 33.4512 159.559 33.4512C156.825 33.4512 154.329 33.0479 152.074 32.2412C149.831 31.4209 147.904 30.2793 146.29 28.8164C144.691 27.3535 143.447 25.6104 142.558 23.5869C141.669 21.5498 141.225 19.3145 141.225 16.8809ZM147.726 16.8809C147.726 18.5352 148.02 20.0254 148.608 21.3516C149.209 22.6777 150.037 23.8125 151.089 24.7559C152.156 25.6855 153.407 26.4033 154.842 26.9092C156.291 27.415 157.864 27.668 159.559 27.668C161.254 27.668 162.82 27.415 164.255 26.9092C165.704 26.4033 166.955 25.6855 168.008 24.7559C169.061 23.8125 169.888 22.6777 170.49 21.3516C171.091 20.0254 171.392 18.5352 171.392 16.8809C171.392 15.2266 171.091 13.7432 170.49 12.4307C169.888 11.1182 169.061 10.0107 168.008 9.1084C166.955 8.19238 165.704 7.49512 164.255 7.0166C162.82 6.53809 161.254 6.29883 159.559 6.29883C157.864 6.29883 156.291 6.53809 154.842 7.0166C153.407 7.49512 152.156 8.19238 151.089 9.1084C150.037 10.0107 149.209 11.1182 148.608 12.4307C148.02 13.7432 147.726 15.2266 147.726 16.8809Z" fill="url(#paint0_linear_3_503)"/>
<defs>
<linearGradient id="paint0_linear_3_503" x1="26.1974" y1="-46.7115" x2="236.867" y2="96.1952" gradientUnits="userSpaceOnUse">
<stop stop-color="#6EFBF2"/>
<stop offset="0.5" stop-color="#C4F8FF"/>
<stop offset="1" stop-color="#18CBC0"/>
</linearGradient>
</defs>
</svg>
