<svg width="1103" height="795" viewBox="0 0 1103 795" fill="none" xmlns="http://www.w3.org/2000/svg">
<g filter="url(#filter0_f_65_304)">
<ellipse cx="522.006" cy="269.851" rx="103.953" ry="57.6945" transform="rotate(22.3747 522.006 269.851)" fill="#0034EB"/>
</g>
<g filter="url(#filter1_f_65_304)">
<circle cx="423.898" cy="221.143" r="71.1421" fill="#425680"/>
</g>
<g filter="url(#filter2_f_65_304)">
<ellipse cx="671.724" cy="390.379" rx="233.787" ry="72.033" transform="rotate(29.3952 671.724 390.379)" fill="#0A34CD"/>
</g>
<g filter="url(#filter3_f_65_304)">
<ellipse cx="501.224" cy="387.656" rx="352.422" ry="94.7145" transform="rotate(23.3308 501.224 387.656)" fill="#00F3F9"/>
</g>
<g filter="url(#filter4_f_65_304)">
<ellipse cx="606.399" cy="393.589" rx="123.831" ry="30.7985" fill="#81FFD9"/>
</g>
<path d="M521.52 292.471C521.52 297.941 514.65 302.851 512.14 302.851C514.64 302.851 521.52 308.101 521.52 313.571C521.52 308.101 528.39 302.851 530.89 302.851C528.39 302.851 521.52 297.941 521.52 292.471Z" fill="#FFFEFF"/>
<path d="M316.83 430.361C316.83 435.831 309.96 440.741 307.45 440.741C309.95 440.741 316.83 445.991 316.83 451.461C316.83 445.991 323.7 440.741 326.2 440.741C323.7 440.741 316.83 435.831 316.83 430.361Z" fill="#FFFEFF"/>
<path d="M331.79 602.541C331.79 608.011 324.92 612.921 322.41 612.921C324.91 612.921 331.79 618.171 331.79 623.641C331.79 618.171 338.66 612.921 341.16 612.921C338.66 612.921 331.79 608.011 331.79 602.541Z" fill="#FFFEFF"/>
<path d="M796.02 477.221C796.02 482.691 789.15 487.601 786.64 487.601C789.14 487.601 796.02 492.851 796.02 498.321C796.02 492.851 802.89 487.601 805.39 487.601C802.89 487.601 796.02 482.691 796.02 477.221Z" fill="#FFFEFF"/>
<path d="M391.4 314.771C391.4 316.431 390.06 317.771 388.4 317.771C386.74 317.771 385.4 316.431 385.4 314.771C385.4 313.111 386.74 311.771 388.4 311.771C390.06 311.771 391.4 313.111 391.4 314.771Z" fill="#FFFEFF"/>
<path d="M252.4 272.101C252.4 273.761 251.06 275.101 249.4 275.101C247.74 275.101 246.4 273.761 246.4 272.101C246.4 270.441 247.74 269.101 249.4 269.101C251.06 269.101 252.4 270.441 252.4 272.101Z" fill="#FFFEFF"/>
<path d="M341.65 574.721C341.65 576.381 340.31 577.721 338.65 577.721C336.99 577.721 335.65 576.381 335.65 574.721C335.65 573.061 336.99 571.721 338.65 571.721C340.31 571.721 341.65 573.061 341.65 574.721Z" fill="#FFFEFF"/>
<path d="M541.66 293.341C541.66 295.001 540.32 296.341 538.66 296.341C537 296.341 535.66 295.001 535.66 293.341C535.66 291.681 537 290.341 538.66 290.341C540.32 290.341 541.66 291.681 541.66 293.341Z" fill="#FFFEFF"/>
<path d="M761.4 477.221C761.4 478.881 760.06 480.221 758.4 480.221C756.74 480.221 755.4 478.881 755.4 477.221C755.4 475.561 756.74 474.221 758.4 474.221C760.06 474.221 761.4 475.561 761.4 477.221Z" fill="#FFFEFF"/>
<path d="M448.33 289.941C448.33 290.821 447.61 291.541 446.73 291.541C445.85 291.541 445.13 290.821 445.13 289.941C445.13 289.061 445.85 288.341 446.73 288.341C447.61 288.341 448.33 289.061 448.33 289.941Z" fill="#FFFEFF"/>
<path d="M283.47 623.651C283.47 624.531 282.75 625.251 281.87 625.251C280.99 625.251 280.27 624.531 280.27 623.651C280.27 622.771 280.99 622.051 281.87 622.051C282.75 622.051 283.47 622.771 283.47 623.651Z" fill="#FFFEFF"/>
<path d="M489.17 351.821C489.17 352.381 488.72 352.831 488.16 352.831C487.6 352.831 487.15 352.381 487.15 351.821C487.15 351.261 487.6 350.811 488.16 350.811C488.72 350.811 489.17 351.261 489.17 351.821Z" fill="#FFFEFF"/>
<path d="M451.41 376.101C451.41 377.761 450.07 379.101 448.41 379.101C446.75 379.101 445.41 377.761 445.41 376.101C445.41 374.441 446.75 373.101 448.41 373.101C450.07 373.101 451.41 374.441 451.41 376.101Z" fill="#FFFEFF"/>
<path d="M593.43 491.111C593.43 491.991 592.71 492.711 591.83 492.711C590.95 492.711 590.23 491.991 590.23 491.111C590.23 490.231 590.95 489.511 591.83 489.511C592.71 489.511 593.43 490.231 593.43 491.111Z" fill="#FFFEFF"/>
<path d="M569.88 350.811C569.88 351.371 569.43 351.821 568.87 351.821C568.31 351.821 567.86 351.371 567.86 350.811C567.86 350.251 568.31 349.801 568.87 349.801C569.43 349.801 569.88 350.251 569.88 350.811Z" fill="#FFFEFF"/>
<path d="M261.4 250.561C261.4 251.111 260.95 251.571 260.39 251.571C259.83 251.571 259.38 251.121 259.38 250.561C259.38 250.001 259.83 249.551 260.39 249.551C260.95 249.551 261.4 250.001 261.4 250.561Z" fill="#FFFEFF"/>
<path d="M358.4 488.781C358.4 489.341 357.95 489.791 357.39 489.791C356.83 489.791 356.38 489.341 356.38 488.781C356.38 488.221 356.83 487.771 357.39 487.771C357.95 487.771 358.4 488.221 358.4 488.781Z" fill="#FFFEFF"/>
<path d="M372.14 566.711C372.14 567.271 371.69 567.721 371.13 567.721C370.57 567.721 370.12 567.271 370.12 566.711C370.12 566.151 370.57 565.701 371.13 565.701C371.69 565.701 372.14 566.151 372.14 566.711Z" fill="#FFFEFF"/>
<path d="M72.74 254.511C78.21 254.571 83.04 261.501 83.02 264.001C83.05 261.501 88.37 254.681 93.85 254.751C88.38 254.691 83.21 247.761 83.23 245.261C83.2 247.761 78.22 254.571 72.74 254.511Z" fill="#FFFEFF"/>
<path d="M45.03 244.341C46.69 244.361 48.01 245.721 48 247.371C47.98 249.031 46.62 250.351 44.97 250.341C43.31 250.321 41.99 248.961 42 247.311C42.02 245.651 43.38 244.331 45.03 244.351V244.341Z" fill="#FFFEFF"/>
<path d="M164.29 491.111C165.17 491.111 165.88 491.851 165.87 492.731C165.87 493.611 165.13 494.321 164.25 494.321C163.36 494.321 162.66 493.581 162.67 492.701C162.68 491.821 163.41 491.111 164.29 491.111Z" fill="#FFFEFF"/>
<path d="M108.36 401.801C108.92 401.801 109.36 402.261 109.36 402.821C109.36 403.371 108.9 403.821 108.34 403.811C107.78 403.811 107.34 403.351 107.35 402.791C107.35 402.241 107.81 401.791 108.37 401.801H108.36Z" fill="#FFFEFF"/>
<path d="M682.94 525.031C688.41 525.091 693.24 532.021 693.22 534.521C693.25 532.021 698.57 525.201 704.05 525.271C698.58 525.211 693.41 518.281 693.43 515.781C693.4 518.281 688.42 525.091 682.94 525.031Z" fill="#FFFEFF"/>
<path d="M655.23 514.861C656.89 514.881 658.21 516.241 658.2 517.891C658.18 519.551 656.82 520.871 655.17 520.861C653.51 520.841 652.19 519.481 652.2 517.831C652.22 516.171 653.58 514.851 655.23 514.871V514.861Z" fill="#FFFEFF"/>
<path d="M703.51 573.591C704.39 573.591 705.1 574.331 705.09 575.211C705.09 576.091 704.35 576.801 703.47 576.801C702.58 576.801 701.88 576.061 701.88 575.181C701.89 574.301 702.62 573.591 703.5 573.601L703.51 573.591Z" fill="#FFFEFF"/>
<path d="M647.57 484.281C648.13 484.281 648.57 484.741 648.57 485.301C648.57 485.851 648.11 486.301 647.55 486.291C646.99 486.291 646.55 485.831 646.56 485.271C646.56 484.721 647.02 484.271 647.58 484.281H647.57Z" fill="#FFFEFF"/>
<path d="M558.66 276.901C558.66 277.461 558.21 277.911 557.65 277.911C557.09 277.911 556.64 277.461 556.64 276.901C556.64 276.341 557.09 275.891 557.65 275.891C558.21 275.891 558.66 276.341 558.66 276.901Z" fill="#FFFEFF"/>
<path d="M738.4 461.601C738.4 462.161 737.95 462.611 737.39 462.611C736.83 462.611 736.38 462.161 736.38 461.601C736.38 461.041 736.83 460.591 737.39 460.591C737.95 460.591 738.4 461.041 738.4 461.601Z" fill="#FFFEFF"/>
<path d="M788.63 292.051C792.59 295.831 791.4 304.191 789.67 306.001C791.4 304.191 799.94 302.841 803.9 306.621C799.94 302.841 800.89 294.251 802.61 292.441C800.89 294.251 792.59 295.831 788.63 292.051Z" fill="#FFFEFF"/>
<path d="M764.73 317.101C765.93 318.241 765.97 320.141 764.83 321.341C763.69 322.541 761.79 322.581 760.59 321.441C759.39 320.301 759.35 318.401 760.49 317.201C761.63 316.001 763.53 315.961 764.73 317.101Z" fill="#FFFEFF"/>
<path d="M737.55 322.951C737.95 323.331 737.97 323.971 737.58 324.371C737.2 324.771 736.56 324.791 736.16 324.401C735.76 324.021 735.74 323.381 736.13 322.981C736.51 322.581 737.15 322.561 737.55 322.951Z" fill="#FFFEFF"/>
<path d="M705.77 628.961C705.77 634.431 698.9 639.341 696.39 639.341C698.89 639.341 705.77 644.591 705.77 650.061C705.77 644.591 712.64 639.341 715.14 639.341C712.64 639.341 705.77 634.431 705.77 628.961Z" fill="#FFFEFF"/>
<path d="M240.03 239.001C240.03 244.471 233.16 249.381 230.65 249.381C233.15 249.381 240.03 254.631 240.03 260.101C240.03 254.631 246.9 249.381 249.4 249.381C246.9 249.381 240.03 244.471 240.03 239.001Z" fill="#FFFEFF"/>
<path d="M690.02 628.961C690.02 630.621 688.68 631.961 687.02 631.961C685.36 631.961 684.02 630.621 684.02 628.961C684.02 627.301 685.36 625.961 687.02 625.961C688.68 625.961 690.02 627.301 690.02 628.961Z" fill="#FFFEFF"/>
<path d="M666.4 618.101C666.4 618.661 665.95 619.111 665.39 619.111C664.83 619.111 664.38 618.661 664.38 618.101C664.38 617.541 664.83 617.091 665.39 617.091C665.95 617.091 666.4 617.541 666.4 618.101Z" fill="#FFFEFF"/>
<path d="M549.13 564.201C545.68 559.951 547.93 551.811 549.88 550.231C547.93 551.811 539.29 552.061 535.85 547.801C539.3 552.051 537.26 560.461 535.32 562.031C537.26 560.461 545.69 559.941 549.14 564.201H549.13Z" fill="#FFFEFF"/>
<path d="M561.37 554.291C560.33 553.001 560.53 551.111 561.81 550.071C563.09 549.031 564.99 549.231 566.03 550.511C567.07 551.801 566.88 553.691 565.59 554.731C564.3 555.771 562.41 555.571 561.37 554.291Z" fill="#FFFEFF"/>
<path d="M586.56 547.861C586.21 547.431 586.28 546.791 586.71 546.451C587.14 546.101 587.78 546.171 588.12 546.601C588.47 547.031 588.4 547.671 587.97 548.021C587.54 548.371 586.9 548.301 586.55 547.871L586.56 547.861Z" fill="#FFFEFF"/>
<path d="M132.35 660.881C130.09 655.891 134.32 648.591 136.6 647.551C134.32 648.581 125.89 646.641 123.63 641.661C125.89 646.651 121.8 654.261 119.52 655.291C121.79 654.261 130.08 655.891 132.34 660.881H132.35Z" fill="#FFFEFF"/>
<path d="M146.7 654.381C146.02 652.871 146.68 651.091 148.19 650.411C149.7 649.731 151.48 650.391 152.16 651.901C152.84 653.411 152.18 655.191 150.67 655.871C149.16 656.551 147.38 655.891 146.7 654.381Z" fill="#FFFEFF"/>
<path d="M172.69 654.521C172.46 654.011 172.69 653.421 173.19 653.191C173.7 652.961 174.29 653.191 174.52 653.691C174.75 654.201 174.52 654.791 174.02 655.021C173.51 655.251 172.92 655.021 172.69 654.521Z" fill="#FFFEFF"/>
<g filter="url(#filter5_f_65_304)">
<ellipse cx="165" cy="93.5" rx="165" ry="93.5" transform="matrix(-1 0 0 1 755 347.881)" fill="#5CFFDC"/>
</g>
<g filter="url(#filter6_f_65_304)">
<ellipse cx="202.5" cy="75" rx="202.5" ry="75" transform="matrix(-1 0 0 1 815 422.881)" fill="#19216B"/>
</g>
<path opacity="0.2" d="M239 573.331C356.437 609.702 701.293 515.978 860.56 553.813C1019.83 591.648 1076 633.537 1076 633.537C1076 633.537 912.971 573.069 789.226 576.43C628.908 580.794 559.373 638.856 464.136 633.537C464.136 633.537 587.743 618.428 627.885 577.695C562.347 558.793 283.388 606.341 239 573.331Z" fill="#186ACB"/>
<path opacity="0.2" d="M1103 461.431C985.563 425.061 640.707 518.785 481.44 480.95C322.173 443.115 266 401.225 266 401.225C266 401.225 429.029 461.693 552.774 458.332C713.092 453.969 782.627 395.906 877.864 401.225C877.864 401.225 754.257 416.335 714.115 457.068C779.653 475.97 1058.61 428.422 1103 461.431Z" fill="#186ACB"/>
<path d="M842.852 480.929L843.087 489.075L849.931 493.499L842.257 496.24L840.165 504.116L835.186 497.665L827.048 498.108L831.646 491.38L828.71 483.778L836.529 486.071L842.852 480.929Z" fill="#FCF2F2"/>
<path d="M842.852 480.929L843.287 489.069L843.196 488.908C845.515 490.323 847.806 491.784 850.11 493.223L850.672 493.574L850.042 493.808L842.401 496.643L842.671 496.35L840.613 504.236L840.376 505.142L839.797 504.4L834.79 497.971L835.213 498.164L827.074 498.573L826.133 498.62L826.666 497.848L831.293 491.14L831.247 491.535L828.402 483.898L828.166 483.265L828.802 483.463C831.396 484.268 833.999 485.047 836.585 485.88L836.403 485.916L842.852 480.929ZM842.852 480.929L836.656 486.226L836.58 486.291L836.473 486.263C833.847 485.567 831.236 484.818 828.617 484.094L829.017 483.66L832.045 491.226L832.127 491.432L831.998 491.621L827.431 498.37L827.023 497.645L835.158 497.167L835.42 497.152L835.581 497.36L840.531 503.834L839.717 503.998L841.844 496.131L841.903 495.911L842.112 495.838L849.819 493.19L849.751 493.775C847.493 492.265 845.22 490.777 842.978 489.242L842.887 489.18L842.887 489.081L842.852 480.929Z" fill="#608AA0"/>
<path d="M843.676 458.881L845.084 461.733L848.231 462.19L845.954 464.41L846.491 467.544L843.676 466.064L840.862 467.544L841.399 464.41L839.122 462.19L842.269 461.733L843.676 458.881Z" fill="#FCF2F2"/>
<path d="M843.676 458.881C844.143 459.771 844.677 460.706 845.196 461.677L845.101 461.608C846.157 461.717 847.207 461.858 848.26 461.985L848.675 462.034L848.375 462.338C847.63 463.092 846.894 463.855 846.142 464.602L846.219 464.364L846.779 467.494L846.884 468.076L846.355 467.803L843.53 466.344L843.823 466.344L840.998 467.803L840.469 468.077L840.573 467.494L841.133 464.364L841.21 464.603C840.457 463.857 839.722 463.093 838.977 462.339L838.675 462.034L839.092 461.984C840.144 461.858 841.195 461.716 842.25 461.608L842.155 461.676C842.675 460.706 843.209 459.771 843.676 458.881ZM843.676 458.881C843.204 459.893 842.8 460.859 842.382 461.789L842.356 461.845L842.286 461.858C841.244 462.055 840.196 462.218 839.152 462.396L839.267 462.041C840.04 462.767 840.823 463.483 841.587 464.216L841.688 464.314L841.665 464.456L841.151 467.594L840.726 467.285L843.53 465.785L843.677 465.707L843.823 465.785L846.627 467.286L846.203 467.594L845.688 464.456L845.664 464.314L845.765 464.217C846.531 463.484 847.313 462.767 848.086 462.042L848.201 462.396C847.156 462.217 846.108 462.054 845.066 461.858L844.996 461.844L844.971 461.789C844.552 460.859 844.148 459.892 843.676 458.881Z" fill="#608AA0"/>
<defs>
<filter id="filter0_f_65_304" x="248.381" y="28.4224" width="547.251" height="482.857" filterUnits="userSpaceOnUse" color-interpolation-filters="sRGB">
<feFlood flood-opacity="0" result="BackgroundImageFix"/>
<feBlend mode="normal" in="SourceGraphic" in2="BackgroundImageFix" result="shape"/>
<feGaussianBlur stdDeviation="87.5" result="effect1_foregroundBlur_65_304"/>
</filter>
<filter id="filter1_f_65_304" x="202.756" y="0.000732422" width="442.284" height="442.284" filterUnits="userSpaceOnUse" color-interpolation-filters="sRGB">
<feFlood flood-opacity="0" result="BackgroundImageFix"/>
<feBlend mode="normal" in="SourceGraphic" in2="BackgroundImageFix" result="shape"/>
<feGaussianBlur stdDeviation="75" result="effect1_foregroundBlur_65_304"/>
</filter>
<filter id="filter2_f_65_304" x="339.956" y="134.564" width="663.535" height="511.631" filterUnits="userSpaceOnUse" color-interpolation-filters="sRGB">
<feFlood flood-opacity="0" result="BackgroundImageFix"/>
<feBlend mode="normal" in="SourceGraphic" in2="BackgroundImageFix" result="shape"/>
<feGaussianBlur stdDeviation="62.5" result="effect1_foregroundBlur_65_304"/>
</filter>
<filter id="filter3_f_65_304" x="0.420898" y="48.1821" width="1001.61" height="678.948" filterUnits="userSpaceOnUse" color-interpolation-filters="sRGB">
<feFlood flood-opacity="0" result="BackgroundImageFix"/>
<feBlend mode="normal" in="SourceGraphic" in2="BackgroundImageFix" result="shape"/>
<feGaussianBlur stdDeviation="87.5" result="effect1_foregroundBlur_65_304"/>
</filter>
<filter id="filter4_f_65_304" x="382.568" y="262.791" width="447.661" height="261.597" filterUnits="userSpaceOnUse" color-interpolation-filters="sRGB">
<feFlood flood-opacity="0" result="BackgroundImageFix"/>
<feBlend mode="normal" in="SourceGraphic" in2="BackgroundImageFix" result="shape"/>
<feGaussianBlur stdDeviation="50" result="effect1_foregroundBlur_65_304"/>
</filter>
<filter id="filter5_f_65_304" x="203" y="125.881" width="774" height="631" filterUnits="userSpaceOnUse" color-interpolation-filters="sRGB">
<feFlood flood-opacity="0" result="BackgroundImageFix"/>
<feBlend mode="normal" in="SourceGraphic" in2="BackgroundImageFix" result="shape"/>
<feGaussianBlur stdDeviation="111" result="effect1_foregroundBlur_65_304"/>
</filter>
<filter id="filter6_f_65_304" x="188" y="200.881" width="849" height="594" filterUnits="userSpaceOnUse" color-interpolation-filters="sRGB">
<feFlood flood-opacity="0" result="BackgroundImageFix"/>
<feBlend mode="normal" in="SourceGraphic" in2="BackgroundImageFix" result="shape"/>
<feGaussianBlur stdDeviation="111" result="effect1_foregroundBlur_65_304"/>
</filter>
</defs>
</svg>
