<svg width="111" height="11" viewBox="0 0 111 11" fill="none" xmlns="http://www.w3.org/2000/svg">
<path d="M110.335 1.62706C106.129 2.47147 101.912 3.52521 97.6154 3.73101C97.8282 3.31941 98.0729 2.92762 98.3905 2.58816C98.7434 2.21122 98.8544 0.74729 98.0326 0.828619C95.6486 1.06412 93.4053 1.9453 91.179 2.77698C89.5199 3.39721 87.8042 4.03158 86.0348 4.20201C86.2484 3.90286 86.4528 3.59806 86.6232 3.27062C86.771 2.98632 86.8233 2.68222 86.7576 2.36468C86.7074 2.11999 86.4895 1.63625 86.1536 1.69849C84.7151 1.96298 83.3644 2.45167 82.0235 2.97783C82.3644 2.54502 82.7173 2.11928 83.1098 1.72395C83.5384 1.29184 83.4712 -0.258364 82.5978 0.0365432C80.636 0.698492 78.851 1.77416 77.0299 2.7395C75.8849 3.34629 74.6947 3.94035 73.4443 4.29395C73.6883 3.99763 73.938 3.70697 74.2053 3.43045C74.474 3.15181 74.5391 2.73031 74.4627 2.36114C74.4132 2.1214 74.1876 1.61221 73.8503 1.68505C70.6664 2.37175 67.9026 4.16029 64.9239 5.37457C65.4507 4.71262 65.979 4.04996 66.5752 3.44742C66.8524 3.16736 66.9154 2.72819 66.8383 2.35478C66.7874 2.10584 66.5589 1.59453 66.2124 1.66454C63.7358 2.16454 61.5003 3.24021 59.2591 4.31658C60.0066 3.74445 60.7605 3.18434 61.4875 2.60725C62.0512 2.15959 61.822 0.641208 60.9529 0.844885C58.274 1.47218 55.7959 2.66949 53.3171 3.82861C51.885 4.49833 50.4232 5.16948 48.9105 5.65179C49.7217 4.93185 50.5321 4.21121 51.3037 3.44813C51.7648 2.99268 51.6778 1.4255 50.7733 1.70061C48.4466 2.40782 46.3454 3.61361 44.2224 4.77202C44.5923 4.45166 44.9657 4.13554 45.3447 3.82648C45.8221 3.43681 45.6474 1.8562 44.844 2.17727C41.6856 3.43823 38.8356 5.31304 35.8483 6.9177C36.4169 6.26141 37.0202 5.64048 37.7125 5.10936C38.2104 4.72747 37.9954 3.08603 37.2055 3.43823C35.576 4.16382 33.9714 4.94671 32.3582 5.70979C32.441 5.54359 32.4749 5.34911 32.47 5.15533C32.4636 4.88235 32.2713 4.16524 31.8505 4.26C31.7974 4.27203 31.7451 4.28476 31.6928 4.29678C31.6928 4.29678 31.692 4.29678 31.6913 4.29749C28.9134 4.94388 26.3158 6.10512 23.6878 7.18856C24.045 6.90568 24.4248 6.65108 24.8349 6.43821C25.366 6.1624 25.4035 4.59805 24.639 4.71615C22.8958 4.98489 21.3144 5.68998 19.7784 6.5054C19.9488 6.30526 20.1228 6.11077 20.3052 5.92549C20.731 5.49126 20.6546 4.10795 19.8194 4.32436C17.0316 5.04854 14.6978 6.83001 12.1278 8.06267C12.5351 7.56551 12.975 7.10228 13.4983 6.72958C13.9036 6.44033 13.8371 5.1129 13.1851 5.18928C8.8251 5.70413 4.82441 7.7805 0.460217 8.26918C-0.183345 8.34132 -0.13384 9.77129 0.495577 9.70835C4.12569 9.34485 7.52171 7.88587 11.0762 7.173C10.567 7.83 10.0811 8.51175 9.50544 9.09662C9.08465 9.52377 9.16244 10.8788 9.98281 10.6687C12.7331 9.96507 15.0408 8.22746 17.5683 7.00469C17.0606 7.62491 16.5174 8.20553 15.8647 8.66027C15.3611 9.01104 15.6292 10.6221 16.3491 10.2579C17.8845 9.48205 19.3859 8.51458 20.9573 7.73807C20.6709 8.03226 20.3823 8.32505 20.0839 8.60581C19.6249 9.03792 19.731 10.6136 20.6037 10.3187C22.5436 9.66168 24.4191 8.81727 26.3109 8.02307C26.0704 8.20977 25.8307 8.3986 25.5924 8.58955C25.0676 9.00892 25.2614 10.6284 26.1228 10.3385C28.7868 9.44032 31.3144 8.20341 33.8413 6.97145C33.3752 7.53722 32.9021 8.09379 32.3879 8.60935C31.9664 9.03226 32.0358 10.6624 32.9056 10.3158C34.9254 9.51175 36.8115 8.44315 38.6871 7.35334C38.2104 7.84344 38.4296 9.33212 39.2762 9.07752C41.7648 8.32858 43.9862 6.99267 46.2528 5.75505C46.0067 5.98348 45.7627 6.21403 45.523 6.44953C45.1262 6.83991 45.059 8.34839 45.8942 8.27696C48.5449 8.05065 50.9975 6.99125 53.3808 5.87669C54.3504 5.42337 55.3164 4.95873 56.2931 4.51955C55.6283 5.11431 54.9982 5.74656 54.4296 6.44246C54.1644 6.76707 54.0717 7.15532 54.1573 7.57116C54.2379 7.96154 54.5257 8.39577 54.9762 8.24514C58.0187 7.22604 60.7598 5.45448 63.7527 4.33073C63.1162 5.10017 62.4493 5.83991 61.6452 6.45236C61.2046 6.78828 61.2407 8.42972 62.0151 8.27272C65.3913 7.58601 68.247 5.53864 71.4097 4.30951C71.2711 4.46439 71.1289 4.61573 70.9811 4.76212C70.5667 5.17443 70.5285 6.57824 71.3482 6.56763C73.3906 6.54146 75.3008 5.67018 77.0766 4.73879C77.9754 4.26778 78.8594 3.76001 79.7562 3.27981C79.4033 3.65463 79.0285 4.01036 78.6133 4.3279C78.0638 4.74869 78.2824 6.4078 79.1551 6.1136C80.8905 5.52874 82.5511 4.63907 84.2936 4.04572C84.1954 4.19565 84.102 4.34841 84.0171 4.50753C83.754 4.99904 83.7647 6.04995 84.4987 6.12067C86.7463 6.33708 88.9563 5.57117 91.0341 4.80526C92.7957 4.15604 94.5539 3.41984 96.3877 3.00329C96.2179 3.35265 96.0553 3.70838 95.8813 4.06269C95.6557 4.52167 95.592 5.72605 96.3778 5.72534C101.125 5.71898 105.753 4.55067 110.378 3.6221C111.266 3.44388 111.161 1.45874 110.33 1.62565L110.335 1.62706Z" fill="url(#paint0_linear_101_363)"/>
<defs>
<linearGradient id="paint0_linear_101_363" x1="16.0658" y1="-7.60769" x2="51.978" y2="66.4529" gradientUnits="userSpaceOnUse">
<stop stop-color="#6EFBF2"/>
<stop offset="0.5" stop-color="#C4F8FF"/>
<stop offset="1" stop-color="#18CBC0"/>
</linearGradient>
</defs>
</svg>
