<svg width="99" height="8" viewBox="0 0 99 8" fill="none" xmlns="http://www.w3.org/2000/svg">
<path d="M98.2148 0.754935C89.501 -0.121853 80.7742 0.105035 72.0474 0.429024C67.8671 0.273278 63.6876 0.119456 59.5088 0.0396607C53.087 -0.0833972 46.6904 0.0886916 40.2751 0.388645C33.9549 0.684753 27.6275 0.808773 21.3147 1.29331C18.3059 1.52405 15.307 1.83265 12.3291 2.3941C9.48476 2.93056 6.49962 3.63045 3.63326 2.90556C2.7627 2.68541 2.63089 4.77547 3.3607 4.97063C3.3843 4.97736 3.40789 4.98217 3.43149 4.9889C3.19391 4.9466 2.95553 4.90141 2.71795 4.85238C2.45759 4.79854 2.29162 5.06581 2.22409 5.41864C1.67978 5.53689 1.13548 5.65802 0.59117 5.78108C-0.222441 5.96567 -0.185828 8.12014 0.636733 7.9942C2.11181 7.7702 3.58851 7.5635 5.06603 7.36353C9.16013 8.08746 13.3673 7.75097 17.4704 7.26066C22.5066 6.65787 27.5168 5.68398 32.5783 5.39653C35.3275 5.24078 38.093 5.31481 40.8454 5.32538C43.7484 5.33692 46.6522 5.36865 49.5543 5.41479C55.3749 5.50805 61.1938 5.66283 67.0128 5.83973C71.0182 5.96182 75.0228 6.10026 79.0274 6.24447C81.0484 6.31754 83.071 6.39156 85.0928 6.41656C87.0984 6.44156 89.1259 6.55212 91.1274 6.39637C91.9052 6.3358 91.8255 4.49763 91.0859 4.38514C89.6556 4.16883 88.2106 4.12076 86.7705 4.02655C85.328 3.93233 83.8863 3.85253 82.4429 3.77947C79.5489 3.63334 76.6516 3.55066 73.756 3.44971C71.3583 3.36607 68.9606 3.28627 66.5637 3.21225C68.6335 3.15553 70.7033 3.09977 72.774 3.04785C74.6339 3.11899 76.4938 3.1911 78.3537 3.25551C84.992 3.48721 91.6286 3.6045 98.2693 3.43337C99.2896 3.40741 99.2139 0.855881 98.214 0.754935H98.2148Z" fill="url(#paint0_linear_101_362)"/>
<defs>
<linearGradient id="paint0_linear_101_362" x1="14.3289" y1="-5.6928" x2="38.2212" y2="53.0358" gradientUnits="userSpaceOnUse">
<stop stop-color="#6EFBF2"/>
<stop offset="0.5" stop-color="#C4F8FF"/>
<stop offset="1" stop-color="#18CBC0"/>
</linearGradient>
</defs>
</svg>
