<svg width="19" height="18" viewBox="0 0 19 18" fill="none" xmlns="http://www.w3.org/2000/svg">
<path d="M5.97934 11.862C5.97934 10.6505 5.97857 9.43918 5.97972 8.22769C5.9803 7.51138 6.22923 6.89613 6.75031 6.40133C7.22593 5.94968 7.79955 5.72836 8.45354 5.72779C10.8955 5.7253 13.3375 5.72395 15.7795 5.72798C17.0121 5.73009 18.0034 6.57049 18.2228 7.78543C18.2456 7.91144 18.2531 8.03897 18.2531 8.16708C18.2531 10.6315 18.2594 13.0959 18.2504 15.5601C18.246 16.7346 17.4601 17.6865 16.3153 17.9471C16.1306 17.9891 15.9429 18.001 15.7538 18.001C13.3277 18.0006 10.9017 18.0016 8.47578 18.0002C7.24568 17.9996 6.25953 17.1907 6.0223 15.9919C5.98873 15.8219 5.97953 15.6497 5.97953 15.4767C5.97953 14.2717 5.97953 13.0668 5.97953 11.8616L5.97934 11.862ZM12.1204 7.36639C10.9028 7.36639 9.68498 7.36581 8.46734 7.36677C7.96775 7.36715 7.61985 7.71122 7.61966 8.20755C7.6187 10.6461 7.6187 13.0846 7.61966 15.5233C7.61966 16.0177 7.97158 16.3656 8.46754 16.3658C10.8997 16.3662 13.3319 16.3662 15.7641 16.3658C16.2687 16.3658 16.6185 16.0149 16.6185 15.5087C16.6187 13.0798 16.6185 10.6509 16.6185 8.22174C16.6185 8.17073 16.6185 8.11895 16.6105 8.06889C16.5422 7.64371 16.2139 7.36715 15.7737 7.36677C14.5561 7.36581 13.3383 7.36639 12.1206 7.36639H12.1204Z" fill="white"/>
<path d="M0.254599 6.13475C0.254599 4.91693 0.245201 3.6991 0.257475 2.48147C0.268215 1.42052 0.773565 0.661444 1.72865 0.206341C2.03819 0.0588599 2.37151 0.00151664 2.71499 0.00170842C5.1633 0.00247556 7.61161 -0.00136011 10.0599 0.00343447C11.3266 0.00592766 12.3339 0.890817 12.5057 2.15122C12.5598 2.54725 12.5475 2.95038 12.5182 3.34795C12.4848 3.79979 12.108 4.11086 11.6638 4.09072C11.2354 4.07135 10.8974 3.71425 10.8901 3.2674C10.8859 3.00849 10.8901 2.74958 10.889 2.49068C10.8871 1.98226 10.5411 1.63705 10.0329 1.63685C7.60374 1.63666 5.17461 1.63666 2.74548 1.63685C2.23937 1.63685 1.88994 1.98609 1.88974 2.4924C1.88955 4.92479 1.88955 7.35699 1.88974 9.78938C1.88974 10.2846 2.23764 10.6332 2.73359 10.6361C2.99576 10.6374 3.25774 10.633 3.51991 10.6373C3.96753 10.6445 4.32329 10.9811 4.34342 11.4105C4.36414 11.8541 4.05306 12.2371 3.60084 12.264C3.14305 12.2914 2.68066 12.3111 2.22441 12.2248C1.20738 12.0321 0.401505 11.1681 0.274736 10.1417C0.258626 10.0111 0.25479 9.88048 0.254599 9.74968C0.254023 8.54471 0.254215 7.33973 0.254407 6.13475H0.254599Z" fill="white"/>
</svg>
