<svg width="80" height="5" viewBox="0 0 80 5" fill="none" xmlns="http://www.w3.org/2000/svg">
<path d="M79.5128 0.402045C74.4188 0.246932 69.3267 0.106551 64.2308 0.0484916C59.0956 -0.010434 53.9605 -0.00956745 48.8247 0.0164292C38.5324 0.0675558 28.2381 0.277262 17.9558 0.943641C12.1344 1.31973 6.32444 1.82666 0.533428 2.74347C-0.203414 2.86046 -0.164833 5.05977 0.574539 4.99824C10.7986 4.14816 21.0176 3.34746 31.2594 2.99044C41.548 2.63169 51.836 2.65335 62.1265 2.59009C67.9352 2.55456 73.7395 2.47831 79.5476 2.30153C80.1725 2.28247 80.1396 0.420243 79.5134 0.401179L79.5128 0.402045Z" fill="url(#paint0_linear_101_358)"/>
<defs>
<linearGradient id="paint0_linear_101_358" x1="11.5789" y1="-3.55818" x2="23.8272" y2="35.3682" gradientUnits="userSpaceOnUse">
<stop stop-color="#6EFBF2"/>
<stop offset="0.5" stop-color="#C4F8FF"/>
<stop offset="1" stop-color="#18CBC0"/>
</linearGradient>
</defs>
</svg>
