<svg width="98" height="7" viewBox="0 0 98 7" fill="none" xmlns="http://www.w3.org/2000/svg">
<path d="M1.11553 3.3343C8.05395 2.9183 14.9324 2.36552 21.9073 2.03085C28.8598 1.69705 35.8863 1.54673 42.9422 1.59691C49.9914 1.64725 57.0842 1.90276 64.1451 2.39611C70.493 2.83972 76.8917 3.29015 83.1915 4.00014C87.8948 4.53012 92.6177 5.23601 96.9987 6.35039C97.9635 6.59575 98.2266 5.57701 97.4134 5.35262C91.6264 3.75878 85.319 2.89489 79.0084 2.2558C75.8197 1.9332 72.6172 1.6764 69.4158 1.42021C66.1233 1.157 62.8372 0.879972 59.5366 0.67854C45.3406 -0.18749 31.1333 -0.0100935 17.2426 0.771946C11.6598 1.08614 6.12541 1.50422 0.739655 2.18227C-0.207606 2.30163 -0.036145 3.40227 1.11334 3.33362L1.11553 3.3343Z" fill="url(#paint0_linear_101_365)"/>
<defs>
<linearGradient id="paint0_linear_101_365" x1="14.8376" y1="-6.31365" x2="26.9567" y2="42.0316" gradientUnits="userSpaceOnUse">
<stop stop-color="#6EFBF2"/>
<stop offset="0.5" stop-color="#C4F8FF"/>
<stop offset="1" stop-color="#18CBC0"/>
</linearGradient>
</defs>
</svg>
