<svg width="13" height="16" viewBox="0 0 13 16" fill="none" xmlns="http://www.w3.org/2000/svg">
<path d="M6.62381 0C6.73382 0.0100179 6.8441 0.0188175 6.95397 0.0301892C7.43779 0.0797373 7.90218 0.198328 8.34474 0.393678C8.8718 0.626391 9.32731 0.951026 9.70367 1.37571C10.0373 1.75219 10.2892 2.17592 10.475 2.63634C10.6681 3.11463 10.7808 3.61092 10.8378 4.12048C10.8899 4.58618 10.8757 5.0531 10.8772 5.51988C10.8772 5.52299 10.8755 5.52624 10.8733 5.53369H8.95758C8.95758 5.51189 8.95772 5.49199 8.95758 5.47209C8.95392 5.1507 8.96194 4.82864 8.94392 4.50807C8.91265 3.94977 8.79574 3.40948 8.507 2.91576C8.16754 2.33553 7.65794 1.98653 6.9696 1.8873C6.52916 1.8238 6.08985 1.82638 5.65448 1.92317C5.08051 2.0507 4.6526 2.3729 4.34372 2.84807C4.13244 3.17298 4.00919 3.53064 3.93201 3.90428C3.86172 4.24395 3.83834 4.58767 3.8389 4.93342C3.83919 5.11442 3.8389 5.29556 3.8389 5.47656V5.53464H1.92009C1.92009 5.51216 1.92009 5.49226 1.92009 5.47223C1.92192 5.1744 1.91657 4.87643 1.92727 4.57901C1.95741 3.73533 2.1277 2.92293 2.53617 2.16712C2.77956 1.71686 3.09394 1.31939 3.49495 0.987849C3.93257 0.626121 4.4302 0.368497 4.98022 0.203472C5.34587 0.0938165 5.71997 0.0289708 6.10252 0.00947642C6.12506 0.00825802 6.14731 0.00324906 6.16971 0C6.32113 0 6.4724 0 6.62381 0Z" fill="white"/>
<path d="M6.39662 6.15317C7.87978 6.15317 9.36309 6.1506 10.8463 6.15426C11.5615 6.15602 12.1186 6.45046 12.5076 7.02825C12.7084 7.32663 12.7976 7.65952 12.7977 8.0138C12.7983 10.0562 12.8039 12.0987 12.7949 14.141C12.7917 14.8926 12.4224 15.4498 11.7328 15.8041C11.4664 15.9408 11.1761 15.9993 10.8746 15.9993C7.89049 15.9999 4.90642 16.0007 1.92248 15.999C1.00582 15.9985 0.221 15.382 0.0408516 14.5234C0.013949 14.3951 0.00324435 14.2616 0.0031035 14.1306C0.000849876 12.0934 0.00465286 10.056 4.76906e-06 8.01868C-0.00196715 7.15307 0.607778 6.41337 1.45105 6.20949C1.61374 6.1701 1.77924 6.15304 1.94699 6.15304C3.43015 6.15331 4.91346 6.15317 6.39662 6.15317ZM5.758 12.2517C5.758 12.3954 5.75673 12.5392 5.75842 12.683C5.75969 12.7961 5.75476 12.9104 5.76983 13.0221C5.81434 13.3535 6.17027 13.5934 6.50973 13.5277C6.82889 13.466 7.03693 13.2235 7.03764 12.9099C7.03848 12.465 7.03834 12.0202 7.03707 11.5753C7.03707 11.5359 7.04778 11.5128 7.08454 11.4907C7.53202 11.2216 7.76203 10.7044 7.65344 10.2176C7.50583 9.55562 6.87904 9.14326 6.18084 9.24899C5.62645 9.33292 5.16981 9.79754 5.12614 10.3338C5.08572 10.8303 5.287 11.2183 5.71927 11.4935C5.74997 11.5132 5.75899 11.5332 5.75885 11.5668C5.75744 11.7952 5.75814 12.0235 5.75814 12.2518L5.758 12.2517Z" fill="white"/>
</svg>
