<svg width="39" height="33" viewBox="0 0 39 33" fill="none" xmlns="http://www.w3.org/2000/svg">
<path d="M38.9024 2.52358C38.8834 2.52154 38.8644 2.5195 38.8454 2.51679C38.8454 2.36945 38.8529 2.22211 38.844 2.07544C38.7626 0.681481 37.9566 -0.0912072 36.5708 0.0221838C35.8945 0.0771818 35.2006 0.242855 34.5725 0.498833C29.0123 2.7653 23.4473 5.02225 17.9183 7.3634C12.5556 9.63394 7.23102 11.9955 1.89621 14.3312C1.50851 14.5009 1.13439 14.7406 0.815943 15.0183C-0.0137805 15.7428 0.0873887 16.6085 1.06581 17.1157C1.554 17.369 2.08022 17.5713 2.61051 17.7187C4.46211 18.2347 6.33544 18.674 8.17549 19.2267C9.49748 19.6232 10.7597 19.5587 11.9683 18.9612C12.9379 18.4818 13.8844 17.9359 14.7793 17.3282C18.5966 14.7345 22.3888 12.1034 26.1958 9.49475C26.8674 9.03439 27.5559 8.59712 28.2559 8.18226C28.6436 7.95209 29.0082 8.02202 29.2139 8.28275C29.4061 8.52651 29.3687 8.8694 29.0741 9.20618C28.6796 9.6577 28.2905 10.1181 27.8553 10.5275C24.8657 13.3426 21.8639 16.1434 18.8696 18.9531C18.433 19.3625 17.9977 19.7767 17.5958 20.22C17.2413 20.6118 17.0057 21.0796 16.9827 21.6242C16.9473 22.4763 17.3581 23.1023 18.0351 23.5586C19.6864 24.6715 21.3533 25.7592 23.0053 26.8714C24.9384 28.173 26.8558 29.4964 28.7909 30.7946C29.5256 31.2875 30.3132 31.6888 31.1817 31.9C32.5899 32.2429 33.6817 31.7975 34.3308 30.502C34.6554 29.8542 34.9011 29.1372 35.0254 28.4243C35.3696 26.4416 35.6229 24.4433 35.9264 22.4539C36.7493 17.0648 37.5845 11.6777 38.4027 6.28856C38.5928 5.03719 38.7367 3.77903 38.9024 2.52358Z" fill="white"/>
</svg>
